<svg width="20" height="31" viewBox="0 0 30 31" fill="none" xmlns="http://www.w3.org/2000/svg">
<path fill-rule="evenodd" clip-rule="evenodd" d="M22.0979 2.71692C18.2227 -0.395835 11.9397 -0.395831 8.0645 2.71692L3.29053 6.5516C-0.58468 9.66435 -0.584676 14.7111 3.29054 17.8239L15.0812 27.2947L26.8719 17.8239C30.7471 14.7111 30.7471 9.66435 26.8719 6.5516L22.0979 2.71692ZM15.4683 16.7035C18.3594 16.7035 20.7031 14.8209 20.7031 12.4986C20.7031 10.1763 18.3594 8.29376 15.4683 8.29376C12.5771 8.29376 10.2334 10.1763 10.2334 12.4986C10.2334 14.8209 12.5771 16.7035 15.4683 16.7035Z" fill="#B1002A"/>
<ellipse cx="15.4683" cy="29.3181" rx="8.72472" ry="1.40162" fill="#F0F0F0"/>
</svg>
