<svg width="82" height="14" viewBox="0 0 82 14" fill="none" xmlns="http://www.w3.org/2000/svg">
<path d="M7 0L8.5716 4.83688H13.6574L9.5429 7.82624L11.1145 12.6631L7 9.67376L2.8855 12.6631L4.4571 7.82624L0.342604 4.83688H5.4284L7 0Z" fill="#FFBE3F"/>
<path d="M24 0L25.5716 4.83688H30.6574L26.5429 7.82624L28.1145 12.6631L24 9.67376L19.8855 12.6631L21.4571 7.82624L17.3426 4.83688H22.4284L24 0Z" fill="#FFBE3F"/>
<path d="M41 0L42.5716 4.83688H47.6574L43.5429 7.82624L45.1145 12.6631L41 9.67376L36.8855 12.6631L38.4571 7.82624L34.3426 4.83688H39.4284L41 0Z" fill="#FFBE3F"/>
<path d="M58 0L59.5716 4.83688H64.6574L60.5429 7.82624L62.1145 12.6631L58 9.67376L53.8855 12.6631L55.4571 7.82624L51.3426 4.83688H56.4284L58 0Z" fill="#FFBE3F"/>
<path d="M75 0.809018L76.3338 4.91413L76.39 5.08688H76.5716H80.888L77.396 7.62398L77.249 7.73075L77.3051 7.90349L78.639 12.0086L75.1469 9.47151L75 9.36475L74.8531 9.47151L71.361 12.0086L72.6949 7.90349L72.751 7.73075L72.604 7.62398L69.112 5.08688H73.4284H73.61L73.6662 4.91413L75 0.809018Z" fill="white" stroke="#FFBE3F" stroke-width="0.5"/>
</svg>
